<svg width="100" height="100" viewBox="0 0 100 100" fill="none" xmlns="http://www.w3.org/2000/svg">
<path d="M0 75.25L-6.79956e-07 59.6944C-8.81132e-07 55.0921 3.73096 51.3611 8.33333 51.3611L16.195 51.3611C20.7973 51.3611 24.5283 55.0921 24.5283 59.6944L24.5283 66.9167C24.5283 71.5191 20.7973 75.25 16.195 75.25L0 75.25Z" fill="url(#paint0_linear_312_897)"/>
<rect x="26.4153" y="75.25" width="23.8889" height="32.0755" rx="8.33333" transform="rotate(-90 26.4153 75.25)" fill="url(#paint1_linear_312_897)"/>
<rect x="60.3777" y="75.25" width="23.8889" height="21.6981" rx="8.33333" transform="rotate(-90 60.3777 75.25)" fill="url(#paint2_linear_312_897)"/>
<rect x="17.9243" y="49.1389" width="23.8889" height="24.5283" rx="8.33333" transform="rotate(-90 17.9243 49.1389)" fill="url(#paint3_linear_312_897)"/>
<rect x="44.3391" y="49.1389" width="23.8889" height="32.0755" rx="8.33333" transform="rotate(-90 44.3391 49.1389)" fill="url(#paint4_linear_312_897)"/>
<path d="M86.6348 49.1389C82.0325 49.1389 78.3015 45.4079 78.3015 40.8056L78.3015 33.5833C78.3015 28.981 82.0325 25.25 86.6348 25.25L99.9996 25.25L99.9996 40.8056C99.9996 45.4079 96.2687 49.1389 91.6663 49.1389L86.6348 49.1389Z" fill="url(#paint5_linear_312_897)"/>
<defs>
<linearGradient id="paint0_linear_312_897" x1="0.518204" y1="69.8666" x2="4.415" y2="59.5108" gradientUnits="userSpaceOnUse">
<stop stop-color="#D9D9D9"/>
<stop offset="1" stop-color="white"/>
</linearGradient>
<linearGradient id="paint1_linear_312_897" x1="31.7987" y1="75.9277" x2="42.7168" y2="79.0694" gradientUnits="userSpaceOnUse">
<stop stop-color="#D9D9D9"/>
<stop offset="1" stop-color="white"/>
</linearGradient>
<linearGradient id="paint2_linear_312_897" x1="65.7611" y1="75.7084" x2="75.7718" y2="79.9667" gradientUnits="userSpaceOnUse">
<stop stop-color="#D9D9D9"/>
<stop offset="1" stop-color="white"/>
</linearGradient>
<linearGradient id="paint3_linear_312_897" x1="23.3077" y1="49.6571" x2="33.6635" y2="53.5539" gradientUnits="userSpaceOnUse">
<stop stop-color="#D9D9D9"/>
<stop offset="1" stop-color="white"/>
</linearGradient>
<linearGradient id="paint4_linear_312_897" x1="49.7225" y1="49.8166" x2="60.6406" y2="52.9583" gradientUnits="userSpaceOnUse">
<stop stop-color="#D9D9D9"/>
<stop offset="1" stop-color="white"/>
</linearGradient>
<linearGradient id="paint5_linear_312_897" x1="78.7599" y1="43.7555" x2="83.0182" y2="33.7448" gradientUnits="userSpaceOnUse">
<stop stop-color="#D9D9D9"/>
<stop offset="1" stop-color="white"/>
</linearGradient>
</defs>
</svg>
