<svg width="535" height="144" viewBox="0 0 535 144" fill="none" xmlns="http://www.w3.org/2000/svg">
<path d="M151.91 15.5146C146.062 15.9824 141.413 16.7134 137.963 17.7076C134.571 18.6432 132.319 20.4268 131.208 23.0583L82.9635 143.056H73.9286L21.9997 24.2864C19.8359 19.4911 13.0817 16.5672 1.73685 15.5146C0.742712 11.655 0.859669 7.88316 2.08772 4.19902C29.1633 5.01772 52.6424 5.13467 72.5251 4.54989C73.6947 7.88316 73.6947 11.5965 72.5251 15.69C64.9814 16.2748 60.2446 16.9181 58.3148 17.6198C56.385 18.3216 55.8295 19.7543 56.6482 21.918L86.7354 91.8291L114.542 21.918C114.893 20.9824 114.63 20.1637 113.752 19.4619C112.934 18.7017 111.53 18.0877 109.542 17.6198C107.612 17.152 105.653 16.7719 103.665 16.4795C101.677 16.1871 99.2498 15.924 96.3843 15.69C95.4487 11.8305 95.5656 8.0586 96.7352 4.37445C116.033 5.07619 134.308 5.01772 151.559 4.19902C152.728 7.88316 152.845 11.655 151.91 15.5146ZM149.015 12.0936C149.483 10.3977 149.483 9.02349 149.015 7.97088C141.354 8.32175 133.518 8.49719 125.507 8.49719C117.846 8.49719 109.162 8.32175 99.4545 7.97088C98.9866 9.02349 98.9866 10.3977 99.4545 12.0936C102.086 12.3275 104.279 12.5614 106.033 12.7954C107.846 13.0293 110.039 13.4679 112.612 14.1111C115.185 14.7544 116.969 15.7485 117.963 17.0935C119.016 18.4385 119.191 19.9882 118.489 21.7426L82.174 113.057L43.4028 22.8829C41.7069 18.9064 42.3794 16.3333 45.4203 15.1637C48.5197 13.9357 56.4143 12.9123 69.1041 12.0936C69.5719 10.3977 69.5719 9.02349 69.1041 7.97088C51.8529 8.78958 30.3621 8.78958 4.63153 7.97088C4.10523 9.02349 4.10523 10.3977 4.63153 12.0936C15.6255 13.1462 22.4967 16.7427 25.2452 22.8829L76.297 139.46H80.4197L127.875 21.7426C129.512 18.4093 132.085 16.0994 135.594 14.8129C139.161 13.4679 143.635 12.5614 149.015 12.0936ZM198.312 124.899C197.845 100.455 197.611 82.0047 197.611 69.5488C197.611 55.163 197.903 38.8183 198.488 20.5145C198.605 16.0702 208.371 13.2632 227.786 12.0936C228.136 10.9825 228.136 9.60828 227.786 7.97088C212.464 8.43871 200.505 8.67262 191.909 8.67262C184.716 8.67262 174.512 8.43871 161.295 7.97088C160.828 9.02349 160.828 10.3977 161.295 12.0936C174.746 13.3801 181.529 16.1871 181.646 20.5145C182.231 34.257 182.523 50.6017 182.523 69.5488C182.523 88.0865 182.172 106.536 181.471 124.899C181.354 129.226 174.57 132.033 161.12 133.32C160.652 134.255 160.652 135.629 161.12 137.442C171.061 137.091 181.266 136.916 191.734 136.916C204.189 136.916 216.148 137.091 227.61 137.442C228.078 136.507 228.078 135.132 227.61 133.32C208.195 132.15 198.429 129.343 198.312 124.899ZM158.489 15.5146C157.494 11.655 157.611 7.88316 158.839 4.19902C163.986 4.19902 170.944 4.34521 179.716 4.6376C188.546 4.93 194.687 5.07619 198.137 5.07619C200.652 5.07619 205.505 5.01772 212.698 4.90076C219.891 4.7838 226.119 4.72532 231.382 4.72532C232.493 8.0586 232.552 11.655 231.557 15.5146C218.634 16.8011 212.113 18.5263 211.996 20.69C211.295 35.3096 210.944 53.7596 210.944 76.0399C210.944 97.56 211.236 113.788 211.821 124.723C211.821 125.074 211.967 125.425 212.26 125.776C212.552 126.127 212.961 126.419 213.488 126.653C214.072 126.887 214.657 127.15 215.242 127.442C215.827 127.676 216.616 127.91 217.61 128.144C218.663 128.378 219.54 128.583 220.242 128.758C220.944 128.934 221.879 129.109 223.049 129.285C224.277 129.46 225.242 129.606 225.943 129.723C226.704 129.84 227.698 129.957 228.926 130.074C230.212 130.191 231.09 130.308 231.557 130.425C232.552 133.7 232.376 137.296 231.031 141.214C209.453 140.746 196.353 140.512 191.734 140.512C188.576 140.512 177.553 140.746 158.664 141.214C157.202 137.179 157.202 133.407 158.664 129.899C171.354 128.612 177.757 126.887 177.874 124.723C178.576 110.104 178.927 91.7121 178.927 69.5488C178.927 50.7187 178.634 34.4324 178.05 20.69C177.933 18.5263 171.412 16.8011 158.489 15.5146ZM282.171 14.0234H282.346C285.972 13.7895 290.65 13.6725 296.381 13.6725C305.27 13.6725 312.053 16.421 316.731 21.918C321.468 27.415 323.837 34.5494 323.837 43.3211C323.837 52.2099 321.673 59.929 317.345 66.4786C313.076 72.9698 306.381 76.2153 297.258 76.2153C291.878 76.2153 286.556 75.5428 281.293 74.1978C281.293 53.6134 281.586 33.5552 282.171 14.0234ZM320.24 43.3211C320.24 35.7774 317.959 29.4325 313.398 24.2864C308.895 19.1403 302.93 16.8596 295.504 17.4444C295.036 39.9586 294.802 57.9993 294.802 71.5663C295.972 71.9171 297.755 72.2095 300.153 72.4434C306.995 71.6832 312.053 68.4669 315.328 62.7945C318.603 57.1221 320.24 50.631 320.24 43.3211ZM265.329 124.899C265.212 129.226 258.428 132.033 244.978 133.32C244.51 134.255 244.51 135.629 244.978 137.442C254.92 137.091 265.124 136.916 275.592 136.916C288.048 136.916 300.007 137.091 311.468 137.442C311.936 136.507 311.936 135.132 311.468 133.32C292.053 132.15 282.288 129.343 282.171 124.899C281.586 108.466 281.293 93.7881 281.293 80.8644C287.901 82.2094 294.012 82.8819 299.626 82.8819C309.217 100.718 321.848 118.729 337.521 136.916C340.503 136.916 344.801 136.945 350.415 137.004C356.087 137.062 361.175 137.121 365.678 137.179C370.239 137.238 374.567 137.325 378.66 137.442C379.128 136.39 379.128 135.015 378.66 133.32C369.07 132.618 360.97 130.279 354.362 126.302C347.813 122.267 340.152 114.84 331.38 104.022C325.415 96.4781 320.035 88.525 315.24 80.1626C323.895 77.2972 330.708 72.5312 335.678 65.8646C340.649 59.1981 343.134 51.6836 343.134 43.3211C343.134 32.795 339.743 24.2864 332.959 17.7953C326.176 11.2457 316.79 7.97088 304.802 7.97088C265.27 8.43871 245.388 8.43871 245.154 7.97088C244.803 9.37436 244.803 10.7486 245.154 12.0936C258.604 13.3801 265.387 16.1871 265.504 20.5145C266.089 34.257 266.381 50.6017 266.381 69.5488C266.381 88.0865 266.031 106.536 265.329 124.899ZM261.732 124.723C262.434 110.104 262.785 91.7121 262.785 69.5488C262.785 50.7187 262.493 34.4324 261.908 20.69C261.791 18.5263 255.27 16.8011 242.347 15.5146C241.353 11.655 241.47 7.88316 242.698 4.19902C249.13 4.54989 256.118 4.72532 263.662 4.72532C271.206 4.72532 279.861 4.66684 289.627 4.54989C299.393 4.43293 306.556 4.37445 311.117 4.37445C325.269 4.37445 336.38 7.97088 344.45 15.1637C352.52 22.2981 356.555 31.6839 356.555 43.3211C356.555 51.5666 354.187 59.1688 349.45 66.1278C344.713 73.0867 338.339 78.3498 330.328 81.917C334.304 88.4081 338.924 95.0746 344.187 101.917C350.386 110.162 356.468 116.712 362.432 121.565C368.456 126.419 375.122 129.197 382.432 129.899C383.368 133.641 383.251 137.413 382.081 141.214C373.719 140.98 358.339 140.746 335.942 140.512C319.509 121.331 306.673 103.32 297.433 86.4783H294.802C294.802 97.3553 295.094 110.104 295.679 124.723C295.679 125.074 295.825 125.425 296.118 125.776C296.41 126.127 297.55 126.682 299.539 127.442C301.527 128.203 304.539 128.875 308.574 129.46C312.667 129.986 314.948 130.308 315.416 130.425C316.41 133.7 316.234 137.296 314.889 141.214C293.311 140.746 280.212 140.512 275.592 140.512C272.434 140.512 261.411 140.746 242.522 141.214C241.06 137.179 241.06 133.407 242.522 129.899C255.212 128.612 261.615 126.887 261.732 124.723ZM529.447 133.32C526.172 133.144 522.985 132.91 519.886 132.618C516.845 132.267 514.067 131.799 511.553 131.214C509.038 130.63 506.904 129.869 505.149 128.934C503.453 127.94 502.342 126.712 501.816 125.25L453.308 5.42706C452.314 5.48554 451.349 5.89489 450.413 6.65511C450.004 13.9065 447.782 19.7251 443.747 24.111L445.764 29.2863L408.747 122.355C406.408 128.203 399.215 131.858 387.169 133.32C386.818 134.138 386.642 134.869 386.642 135.513C386.642 136.214 386.818 136.916 387.169 137.618C393.835 137.384 399.186 137.208 403.221 137.091C407.315 136.974 410.122 136.916 411.642 136.916C412.987 136.916 416.028 136.974 420.765 137.091C425.56 137.208 432.051 137.384 440.238 137.618C440.589 136.916 440.764 136.214 440.764 135.513C440.764 134.869 440.589 134.138 440.238 133.32C435.384 132.852 431.437 132.355 428.396 131.828C425.355 131.244 422.987 130.63 421.291 129.986C419.595 129.343 418.455 128.641 417.87 127.881C417.285 127.062 416.993 126.156 416.993 125.162C416.993 124.519 417.11 123.875 417.344 123.232L430.15 91.1273C436.642 91.0104 441.875 90.9227 445.852 90.8642C449.887 90.8057 452.665 90.7765 454.185 90.7765C457.518 90.7765 460.472 90.8057 463.045 90.8642C465.676 90.8642 467.928 90.8934 469.799 90.9519L482.518 123.232C482.81 124.109 482.957 124.782 482.957 125.25C482.957 126.828 482.138 128.232 480.5 129.46C478.922 130.688 476.963 131.536 474.623 132.004L465.15 133.32C464.799 134.138 464.624 134.869 464.624 135.513C464.624 136.214 464.799 136.916 465.15 137.618C470.121 137.442 475.15 137.296 480.237 137.179C485.383 137.062 490.646 137.004 496.027 137.004C501.407 137.004 506.845 137.062 512.342 137.179C517.897 137.296 523.599 137.442 529.447 137.618C529.856 136.799 530.061 136.097 530.061 135.513C530.061 135.162 530.003 134.811 529.886 134.46C529.769 134.109 529.622 133.729 529.447 133.32ZM454.185 83.9345C445.706 83.9345 438.718 83.8175 433.221 83.5836L449.887 40.6019H450.238L466.992 83.759C463.834 83.876 459.565 83.9345 454.185 83.9345ZM450.062 49.8123L438.396 80.1626C445.472 80.5135 453.249 80.572 461.729 80.338L450.062 49.8123ZM532.166 130.074C533.628 133.583 533.57 137.296 531.991 141.214H462.431C461.027 137.179 461.027 133.466 462.431 130.074C468.805 129.723 473.308 129.08 475.939 128.144C478.571 127.15 479.477 125.571 478.658 123.407L467.167 94.3729C456.349 93.9635 444.77 94.0805 432.431 94.7238L421.116 123.758C420.765 124.752 421.028 125.659 421.905 126.478C422.841 127.238 424.332 127.852 426.379 128.32C428.425 128.788 430.823 129.168 433.571 129.46C436.32 129.752 439.419 129.957 442.87 130.074C444.332 133.583 444.273 137.296 442.694 141.214C423.513 140.512 404.186 140.512 384.713 141.214C383.134 137.296 383.075 133.583 384.537 130.074C396.584 128.671 403.397 126.039 404.975 122.179L441.992 29.1109C441.758 28.643 441.291 27.5904 440.589 25.953C439.946 24.2571 439.566 23.1461 439.449 22.6197C444.01 17.9999 446.524 12.0351 446.992 4.72532C452.138 2.21075 458.191 0.778023 465.15 0.427152L514.36 122.53C515.471 125.279 517.225 127.121 519.623 128.057C522.02 128.934 526.201 129.606 532.166 130.074Z" fill="black"/>
</svg>
