<svg width="300" height="44" viewBox="0 0 300 44" fill="none" xmlns="http://www.w3.org/2000/svg">
<path d="M87.2942 33.3216C85.9006 33.3216 84.7322 33.0858 83.7888 32.6141C82.8669 32.1424 82.1808 31.4563 81.7306 30.5558C81.2803 29.6339 81.0552 28.4976 81.0552 27.1469V20.2968H79.3829C78.8683 20.2968 78.4717 20.1682 78.193 19.9109C77.9142 19.6322 77.7749 19.257 77.7749 18.7853C77.7749 18.2922 77.9142 17.917 78.193 17.6597C78.4717 17.4024 78.8683 17.2738 79.3829 17.2738H81.0552V14.3472C81.0552 13.6826 81.2267 13.1787 81.5698 12.8357C81.9342 12.4926 82.4381 12.3211 83.0813 12.3211C83.7245 12.3211 84.2176 12.4926 84.5606 12.8357C84.9037 13.1787 85.0752 13.6826 85.0752 14.3472V17.2738H88.4842C88.9987 17.2738 89.3954 17.4024 89.6741 17.6597C89.9528 17.917 90.0922 18.2922 90.0922 18.7853C90.0922 19.257 89.9528 19.6322 89.6741 19.9109C89.3954 20.1682 88.9987 20.2968 88.4842 20.2968H85.0752V26.9218C85.0752 27.9509 85.3003 28.7227 85.7506 29.2373C86.2008 29.7518 86.9298 30.0091 87.9374 30.0091C88.3019 30.0091 88.6235 29.977 88.9022 29.9126C89.181 29.8483 89.4275 29.8054 89.6419 29.784C89.8992 29.7626 90.1136 29.8483 90.2851 30.0413C90.4566 30.2128 90.5424 30.5773 90.5424 31.1347C90.5424 31.5635 90.4674 31.9494 90.3173 32.2925C90.1886 32.6141 89.9421 32.8392 89.5776 32.9678C89.2989 33.0536 88.9344 33.1286 88.4842 33.193C88.0339 33.2787 87.6373 33.3216 87.2942 33.3216ZM97.6108 33.3216C96.4745 33.3216 95.4561 33.1072 94.5556 32.6784C93.6766 32.2282 92.9798 31.6278 92.4652 30.8774C91.9721 30.127 91.7255 29.2802 91.7255 28.3368C91.7255 27.179 92.0257 26.2678 92.626 25.6032C93.2263 24.9171 94.2019 24.424 95.5526 24.1238C96.9033 23.8237 98.715 23.6736 100.988 23.6736H102.596V25.9891H101.02C99.6905 25.9891 98.6292 26.0534 97.8359 26.1821C97.0427 26.3107 96.4745 26.5358 96.1315 26.8574C95.8099 27.1576 95.6491 27.5864 95.6491 28.1438C95.6491 28.8514 95.8956 29.4302 96.3887 29.8805C96.8819 30.3307 97.5679 30.5558 98.447 30.5558C99.1545 30.5558 99.7763 30.395 100.312 30.0734C100.87 29.7304 101.309 29.2694 101.631 28.6906C101.952 28.1117 102.113 27.447 102.113 26.6966V22.9982C102.113 21.9262 101.877 21.1544 101.406 20.6827C100.934 20.211 100.141 19.9752 99.0259 19.9752C98.4041 19.9752 97.7287 20.0502 96.9998 20.2003C96.2923 20.3504 95.5419 20.6077 94.7486 20.9722C94.3412 21.1651 93.9767 21.2187 93.6551 21.133C93.355 21.0472 93.1191 20.8757 92.9476 20.6184C92.7761 20.3397 92.6903 20.0395 92.6903 19.7179C92.6903 19.3963 92.7761 19.0854 92.9476 18.7853C93.1191 18.4637 93.4086 18.2278 93.8159 18.0778C94.8022 17.6704 95.7455 17.381 96.646 17.2094C97.5679 17.0379 98.4041 16.9522 99.1545 16.9522C100.698 16.9522 101.963 17.188 102.949 17.6597C103.957 18.1314 104.707 18.8496 105.201 19.8144C105.694 20.7578 105.94 21.9798 105.94 23.4806V31.199C105.94 31.8637 105.779 32.3782 105.458 32.7427C105.136 33.0858 104.675 33.2573 104.075 33.2573C103.475 33.2573 103.003 33.0858 102.66 32.7427C102.338 32.3782 102.178 31.8637 102.178 31.199V29.6554H102.435C102.285 30.4058 101.985 31.0597 101.534 31.6171C101.106 32.1531 100.559 32.5712 99.8942 32.8714C99.2295 33.1715 98.4684 33.3216 97.6108 33.3216ZM115.777 33.3216C114.855 33.3216 113.88 33.2251 112.851 33.0322C111.822 32.8392 110.9 32.5069 110.085 32.0352C109.742 31.8208 109.495 31.5742 109.345 31.2955C109.217 30.9954 109.163 30.7059 109.184 30.4272C109.227 30.127 109.334 29.8698 109.506 29.6554C109.699 29.441 109.935 29.3016 110.214 29.2373C110.514 29.173 110.835 29.2266 111.178 29.3981C112.036 29.8054 112.84 30.0949 113.59 30.2664C114.341 30.4165 115.08 30.4915 115.809 30.4915C116.838 30.4915 117.6 30.32 118.093 29.977C118.607 29.6125 118.865 29.1408 118.865 28.5619C118.865 28.0688 118.693 27.6936 118.35 27.4363C118.028 27.1576 117.535 26.9539 116.871 26.8253L113.655 26.2142C112.325 25.957 111.307 25.4746 110.599 24.767C109.913 24.0381 109.57 23.1054 109.57 21.9691C109.57 20.94 109.849 20.0502 110.406 19.2998C110.985 18.5494 111.779 17.9706 112.786 17.5632C113.794 17.1558 114.952 16.9522 116.26 16.9522C117.203 16.9522 118.082 17.0594 118.897 17.2738C119.733 17.4667 120.537 17.7776 121.309 18.2064C121.63 18.3779 121.845 18.603 121.952 18.8818C122.081 19.1605 122.113 19.4499 122.048 19.7501C121.984 20.0288 121.855 20.2861 121.662 20.5219C121.47 20.7363 121.223 20.8757 120.923 20.94C120.644 20.9829 120.322 20.9186 119.958 20.747C119.293 20.404 118.65 20.1574 118.028 20.0074C117.428 19.8573 116.849 19.7822 116.292 19.7822C115.241 19.7822 114.459 19.9645 113.944 20.329C113.451 20.6934 113.204 21.1758 113.204 21.7762C113.204 22.2264 113.354 22.6016 113.655 22.9018C113.955 23.2019 114.416 23.4056 115.038 23.5128L118.254 24.1238C119.647 24.3811 120.698 24.8528 121.405 25.5389C122.134 26.225 122.499 27.1469 122.499 28.3046C122.499 29.8698 121.888 31.1026 120.666 32.003C119.443 32.8821 117.814 33.3216 115.777 33.3216ZM127.718 33.2573C127.074 33.2573 126.581 33.0858 126.238 32.7427C125.895 32.3782 125.724 31.8637 125.724 31.199V12.096C125.724 11.4314 125.895 10.9275 126.238 10.5845C126.581 10.2414 127.074 10.0699 127.718 10.0699C128.361 10.0699 128.854 10.2414 129.197 10.5845C129.561 10.9275 129.744 11.4314 129.744 12.096V23.963H129.808L135.114 18.3672C135.543 17.9384 135.918 17.6061 136.24 17.3702C136.562 17.1344 137.001 17.0165 137.559 17.0165C138.116 17.0165 138.534 17.1666 138.813 17.4667C139.113 17.7454 139.263 18.0885 139.263 18.4958C139.263 18.9032 139.07 19.3106 138.684 19.7179L133.088 25.6354V23.963L139.231 30.588C139.617 30.9954 139.788 31.4134 139.745 31.8422C139.724 32.2496 139.552 32.5926 139.231 32.8714C138.909 33.1286 138.502 33.2573 138.009 33.2573C137.408 33.2573 136.926 33.1394 136.562 32.9035C136.219 32.6677 135.833 32.3139 135.404 31.8422L129.808 25.9891H129.744V31.199C129.744 32.5712 129.068 33.2573 127.718 33.2573ZM146.053 33.2573C145.41 33.2573 144.906 33.0858 144.542 32.7427C144.199 32.3782 144.027 31.8637 144.027 31.199V20.2968H142.548C142.033 20.2968 141.636 20.1682 141.358 19.9109C141.079 19.6322 140.94 19.257 140.94 18.7853C140.94 18.2922 141.079 17.917 141.358 17.6597C141.636 17.4024 142.033 17.2738 142.548 17.2738H145.185L144.027 18.335V17.2416C144.027 15.0333 144.584 13.3824 145.699 12.289C146.814 11.1741 148.422 10.5202 150.523 10.3272L151.617 10.2307C152.046 10.1878 152.389 10.2629 152.646 10.4558C152.903 10.6274 153.075 10.8632 153.16 11.1634C153.246 11.4421 153.257 11.7315 153.193 12.0317C153.128 12.3318 152.989 12.5998 152.775 12.8357C152.582 13.0501 152.324 13.168 152.003 13.1894L151.552 13.2216C150.33 13.3074 149.441 13.6182 148.883 14.1542C148.326 14.6902 148.047 15.505 148.047 16.5984V17.7883L147.532 17.2738H150.781C151.295 17.2738 151.692 17.4024 151.971 17.6597C152.249 17.917 152.389 18.2922 152.389 18.7853C152.389 19.257 152.249 19.6322 151.971 19.9109C151.692 20.1682 151.295 20.2968 150.781 20.2968H148.047V31.199C148.047 32.5712 147.382 33.2573 146.053 33.2573ZM160.043 33.3216C158.263 33.3216 156.923 32.8178 156.023 31.8101C155.122 30.781 154.672 29.2802 154.672 27.3077V12.096C154.672 11.4314 154.843 10.9275 155.187 10.5845C155.53 10.2414 156.023 10.0699 156.666 10.0699C157.309 10.0699 157.802 10.2414 158.145 10.5845C158.51 10.9275 158.692 11.4314 158.692 12.096V27.1147C158.692 28.101 158.896 28.8299 159.303 29.3016C159.732 29.7733 160.332 30.0091 161.104 30.0091C161.275 30.0091 161.436 30.0091 161.586 30.0091C161.736 29.9877 161.887 29.9662 162.037 29.9448C162.337 29.9019 162.54 29.9877 162.648 30.2021C162.755 30.395 162.808 30.8024 162.808 31.4242C162.808 31.9602 162.701 32.3782 162.487 32.6784C162.272 32.9786 161.919 33.1608 161.426 33.2251C161.211 33.2466 160.986 33.268 160.75 33.2894C160.514 33.3109 160.279 33.3216 160.043 33.3216ZM171.933 33.3216C170.304 33.3216 168.889 32.9893 167.688 32.3246C166.488 31.66 165.555 30.7166 164.89 29.4946C164.226 28.251 163.893 26.7931 163.893 25.1208C163.893 23.8558 164.076 22.7302 164.44 21.744C164.826 20.7363 165.373 19.8787 166.08 19.1712C166.788 18.4422 167.635 17.8955 168.621 17.531C169.607 17.1451 170.711 16.9522 171.933 16.9522C173.563 16.9522 174.978 17.2845 176.178 17.9491C177.379 18.6138 178.312 19.5571 178.976 20.7792C179.641 22.0013 179.973 23.4485 179.973 25.1208C179.973 26.3858 179.78 27.5221 179.394 28.5298C179.03 29.5374 178.494 30.4058 177.786 31.1347C177.079 31.8422 176.232 32.389 175.246 32.7749C174.26 33.1394 173.155 33.3216 171.933 33.3216ZM171.933 30.2664C172.727 30.2664 173.423 30.0734 174.024 29.6875C174.624 29.3016 175.085 28.7334 175.407 27.983C175.75 27.2112 175.921 26.2571 175.921 25.1208C175.921 23.4056 175.557 22.1299 174.828 21.2938C174.099 20.4362 173.134 20.0074 171.933 20.0074C171.14 20.0074 170.443 20.2003 169.843 20.5862C169.243 20.9507 168.771 21.5189 168.428 22.2907C168.106 23.0411 167.945 23.9845 167.945 25.1208C167.945 26.8146 168.31 28.101 169.039 28.98C169.768 29.8376 170.733 30.2664 171.933 30.2664ZM189.056 33.2573C188.52 33.2573 188.059 33.1286 187.673 32.8714C187.287 32.5926 186.976 32.1638 186.74 31.585L182.077 19.6858C181.884 19.1712 181.82 18.721 181.884 18.335C181.97 17.9277 182.173 17.6061 182.495 17.3702C182.816 17.1344 183.245 17.0165 183.781 17.0165C184.253 17.0165 184.639 17.1344 184.939 17.3702C185.239 17.5846 185.496 18.0027 185.711 18.6245L189.602 29.3338H188.863L192.883 18.3672C193.054 17.8955 193.279 17.5525 193.558 17.3381C193.858 17.1237 194.244 17.0165 194.716 17.0165C195.187 17.0165 195.573 17.1344 195.873 17.3702C196.174 17.5846 196.399 17.917 196.549 18.3672L200.504 29.3338H199.829L203.753 18.528C203.967 17.9491 204.235 17.5525 204.557 17.3381C204.9 17.1237 205.275 17.0165 205.682 17.0165C206.197 17.0165 206.593 17.1451 206.872 17.4024C207.151 17.6597 207.312 17.992 207.355 18.3994C207.397 18.7853 207.322 19.2141 207.129 19.6858L202.498 31.585C202.284 32.1424 201.973 32.5605 201.566 32.8392C201.18 33.1179 200.719 33.2573 200.183 33.2573C199.647 33.2573 199.175 33.1179 198.768 32.8392C198.382 32.5605 198.082 32.1424 197.867 31.585L193.654 20.4254H195.488L191.371 31.5528C191.157 32.1317 190.856 32.5605 190.471 32.8392C190.085 33.1179 189.613 33.2573 189.056 33.2573Z" fill="white"/>
<path d="M212.164 33.1286C211.542 33.1286 211.038 32.9357 210.652 32.5498C210.266 32.1638 210.073 31.6707 210.073 31.0704C210.073 30.4701 210.266 29.9877 210.652 29.6232C211.038 29.2373 211.542 29.0443 212.164 29.0443C212.785 29.0443 213.279 29.2373 213.643 29.6232C214.008 29.9877 214.19 30.4701 214.19 31.0704C214.19 31.6707 214.008 32.1638 213.643 32.5498C213.279 32.9357 212.785 33.1286 212.164 33.1286ZM223.845 33.2894C222.901 33.2894 221.926 33.1822 220.918 32.9678C219.932 32.7534 219.021 32.389 218.184 31.8744C217.906 31.6814 217.713 31.467 217.606 31.2312C217.498 30.9954 217.455 30.7595 217.477 30.5237C217.52 30.2664 217.616 30.052 217.766 29.8805C217.938 29.6875 218.142 29.5696 218.377 29.5267C218.635 29.4838 218.903 29.5374 219.181 29.6875C220.018 30.1592 220.822 30.4915 221.593 30.6845C222.365 30.856 223.126 30.9418 223.877 30.9418C225.013 30.9418 225.871 30.7381 226.45 30.3307C227.028 29.9234 227.318 29.3766 227.318 28.6906C227.318 28.1331 227.125 27.7043 226.739 27.4042C226.353 27.0826 225.774 26.836 225.002 26.6645L221.947 26.0534C220.618 25.7747 219.61 25.2816 218.924 24.5741C218.238 23.8666 217.895 22.9661 217.895 21.8726C217.895 20.8864 218.163 20.0288 218.699 19.2998C219.235 18.5709 219.985 18.0134 220.95 17.6275C221.915 17.2202 223.03 17.0165 224.295 17.0165C225.238 17.0165 226.128 17.1344 226.964 17.3702C227.8 17.6061 228.572 17.9598 229.28 18.4315C229.558 18.5816 229.741 18.7853 229.826 19.0426C229.912 19.2784 229.923 19.5142 229.859 19.7501C229.816 19.9859 229.708 20.2003 229.537 20.3933C229.365 20.5648 229.151 20.672 228.894 20.7149C228.658 20.7363 228.39 20.672 228.09 20.5219C227.447 20.1146 226.803 19.8251 226.16 19.6536C225.538 19.4821 224.917 19.3963 224.295 19.3963C223.159 19.3963 222.301 19.6107 221.722 20.0395C221.165 20.4469 220.886 21.0043 220.886 21.7118C220.886 22.2478 221.057 22.6874 221.4 23.0304C221.743 23.3734 222.279 23.62 223.008 23.7701L226.064 24.3811C227.457 24.6598 228.508 25.1315 229.215 25.7962C229.944 26.4608 230.309 27.3613 230.309 28.4976C230.309 29.977 229.719 31.1454 228.54 32.003C227.361 32.8606 225.796 33.2894 223.845 33.2894ZM235.531 39.0139C235.016 39.0139 234.62 38.8746 234.341 38.5958C234.062 38.3171 233.923 37.9098 233.923 37.3738V18.721C233.923 18.185 234.062 17.7776 234.341 17.4989C234.62 17.2202 235.005 17.0808 235.499 17.0808C236.013 17.0808 236.41 17.2202 236.688 17.4989C236.967 17.7776 237.107 18.185 237.107 18.721V21.5189L236.753 20.8435C237.096 19.6858 237.771 18.7638 238.779 18.0778C239.787 17.3702 240.976 17.0165 242.349 17.0165C243.742 17.0165 244.954 17.3488 245.983 18.0134C247.033 18.6781 247.837 19.6107 248.395 20.8114C248.974 22.012 249.263 23.4592 249.263 25.153C249.263 26.8038 248.974 28.251 248.395 29.4946C247.837 30.7166 247.044 31.66 246.015 32.3246C244.986 32.9678 243.764 33.2894 242.349 33.2894C240.998 33.2894 239.819 32.9464 238.811 32.2603C237.803 31.5742 237.128 30.663 236.785 29.5267H237.171V37.3738C237.171 37.9098 237.021 38.3171 236.721 38.5958C236.442 38.8746 236.045 39.0139 235.531 39.0139ZM241.545 30.781C242.445 30.781 243.228 30.5666 243.892 30.1378C244.557 29.709 245.072 29.0765 245.436 28.2403C245.8 27.4042 245.983 26.375 245.983 25.153C245.983 23.3091 245.575 21.9155 244.761 20.9722C243.967 20.0288 242.895 19.5571 241.545 19.5571C240.666 19.5571 239.883 19.7715 239.197 20.2003C238.532 20.6077 238.018 21.2294 237.653 22.0656C237.289 22.9018 237.107 23.9309 237.107 25.153C237.107 26.9754 237.514 28.369 238.329 29.3338C239.143 30.2986 240.215 30.781 241.545 30.781ZM257.94 33.2894C256.847 33.2894 255.861 33.075 254.982 32.6462C254.124 32.2174 253.449 31.6386 252.956 30.9096C252.463 30.1806 252.216 29.3552 252.216 28.4333C252.216 27.2755 252.505 26.3643 253.084 25.6997C253.685 25.0136 254.66 24.5312 256.011 24.2525C257.383 23.9523 259.227 23.8022 261.542 23.8022H263.054V25.7962H261.575C260.031 25.7962 258.809 25.8712 257.908 26.0213C257.008 26.1714 256.365 26.4286 255.979 26.7931C255.614 27.1362 255.432 27.6186 255.432 28.2403C255.432 29.055 255.711 29.7197 256.268 30.2342C256.826 30.7274 257.597 30.9739 258.584 30.9739C259.377 30.9739 260.074 30.7917 260.674 30.4272C261.274 30.0413 261.746 29.5267 262.089 28.8835C262.454 28.2403 262.636 27.5006 262.636 26.6645V22.9661C262.636 21.744 262.379 20.865 261.864 20.329C261.349 19.793 260.503 19.525 259.323 19.525C258.637 19.525 257.919 19.6107 257.169 19.7822C256.44 19.9538 255.679 20.2432 254.885 20.6506C254.521 20.8221 254.21 20.8757 253.953 20.8114C253.695 20.747 253.492 20.6077 253.342 20.3933C253.192 20.1574 253.106 19.9109 253.084 19.6536C253.084 19.3749 253.149 19.1069 253.277 18.8496C253.427 18.5923 253.674 18.3994 254.017 18.2707C254.96 17.8205 255.893 17.4989 256.815 17.3059C257.737 17.113 258.605 17.0165 259.42 17.0165C260.856 17.0165 262.036 17.2416 262.957 17.6918C263.901 18.1421 264.598 18.8282 265.048 19.7501C265.498 20.672 265.723 21.8619 265.723 23.3198V31.585C265.723 32.0995 265.595 32.5069 265.337 32.807C265.08 33.0858 264.705 33.2251 264.212 33.2251C263.74 33.2251 263.365 33.0858 263.086 32.807C262.807 32.5069 262.668 32.0995 262.668 31.585V29.4946H262.957C262.786 30.2878 262.464 30.9739 261.993 31.5528C261.542 32.1102 260.974 32.539 260.288 32.8392C259.602 33.1394 258.82 33.2894 257.94 33.2894ZM277.111 33.2894C275.503 33.2894 274.11 32.9571 272.931 32.2925C271.773 31.6064 270.872 30.6523 270.229 29.4302C269.586 28.1867 269.264 26.7288 269.264 25.0565C269.264 23.813 269.447 22.6981 269.811 21.7118C270.176 20.7042 270.69 19.8573 271.355 19.1712C272.041 18.4851 272.866 17.9598 273.831 17.5954C274.817 17.2094 275.911 17.0165 277.111 17.0165C277.862 17.0165 278.644 17.1344 279.459 17.3702C280.295 17.5846 281.067 17.9491 281.775 18.4637C282.053 18.6352 282.225 18.8496 282.289 19.1069C282.375 19.3427 282.386 19.5893 282.321 19.8466C282.278 20.1038 282.16 20.329 281.968 20.5219C281.796 20.6934 281.582 20.8006 281.324 20.8435C281.067 20.865 280.788 20.7899 280.488 20.6184C279.974 20.2539 279.448 19.9966 278.912 19.8466C278.376 19.675 277.862 19.5893 277.369 19.5893C276.597 19.5893 275.911 19.7179 275.31 19.9752C274.732 20.211 274.238 20.5648 273.831 21.0365C273.424 21.4867 273.113 22.0549 272.898 22.741C272.705 23.427 272.609 24.2096 272.609 25.0886C272.609 26.8467 273.016 28.2296 273.831 29.2373C274.667 30.2235 275.846 30.7166 277.369 30.7166C277.862 30.7166 278.376 30.6416 278.912 30.4915C279.448 30.3414 279.974 30.0842 280.488 29.7197C280.788 29.5482 281.067 29.4838 281.324 29.5267C281.582 29.5696 281.785 29.6875 281.935 29.8805C282.107 30.052 282.214 30.2664 282.257 30.5237C282.321 30.7595 282.311 31.0061 282.225 31.2634C282.139 31.5206 281.957 31.735 281.678 31.9066C280.992 32.3997 280.242 32.7534 279.427 32.9678C278.634 33.1822 277.862 33.2894 277.111 33.2894ZM292.26 33.2894C290.545 33.2894 289.065 32.9678 287.822 32.3246C286.6 31.66 285.645 30.7274 284.959 29.5267C284.295 28.3046 283.962 26.8574 283.962 25.1851C283.962 23.5557 284.295 22.1299 284.959 20.9078C285.624 19.6858 286.535 18.7317 287.693 18.0456C288.851 17.3595 290.169 17.0165 291.649 17.0165C292.742 17.0165 293.718 17.1987 294.575 17.5632C295.433 17.9062 296.162 18.4208 296.762 19.1069C297.384 19.7715 297.845 20.5862 298.145 21.551C298.467 22.5158 298.627 23.5986 298.627 24.7992C298.627 25.1637 298.52 25.4424 298.306 25.6354C298.091 25.8069 297.77 25.8926 297.341 25.8926H286.535V23.8987H296.441L295.894 24.349C295.894 23.277 295.733 22.3658 295.411 21.6154C295.111 20.865 294.65 20.2968 294.029 19.9109C293.428 19.5035 292.678 19.2998 291.777 19.2998C290.77 19.2998 289.912 19.5357 289.205 20.0074C288.518 20.479 287.993 21.133 287.629 21.9691C287.264 22.8053 287.082 23.7808 287.082 24.8957V25.0886C287.082 26.9754 287.521 28.4011 288.401 29.3659C289.301 30.3093 290.598 30.781 292.292 30.781C292.935 30.781 293.61 30.6952 294.318 30.5237C295.047 30.3522 295.733 30.0627 296.376 29.6554C296.741 29.441 297.062 29.3445 297.341 29.3659C297.641 29.3874 297.877 29.4838 298.049 29.6554C298.241 29.8269 298.359 30.0413 298.402 30.2986C298.445 30.5558 298.402 30.8238 298.274 31.1026C298.145 31.3598 297.92 31.5957 297.598 31.8101C296.869 32.3032 296.022 32.6784 295.058 32.9357C294.093 33.1715 293.16 33.2894 292.26 33.2894Z" fill="white" fill-opacity="0.63"/>
<path d="M0 37L-4.07973e-07 27.6667C-5.28679e-07 24.9052 2.23858 22.6667 5 22.6667L9.71698 22.6667C12.4784 22.6667 14.717 24.9052 14.717 27.6667L14.717 32C14.717 34.7614 12.4784 37 9.71698 37L0 37Z" fill="url(#paint0_linear_312_823)"/>
<rect x="15.8491" y="37" width="14.3333" height="19.2453" rx="5" transform="rotate(-90 15.8491 37)" fill="url(#paint1_linear_312_823)"/>
<rect x="36.2266" y="37" width="14.3333" height="13.0189" rx="5" transform="rotate(-90 36.2266 37)" fill="url(#paint2_linear_312_823)"/>
<rect x="10.7546" y="21.3333" width="14.3333" height="14.717" rx="5" transform="rotate(-90 10.7546 21.3333)" fill="url(#paint3_linear_312_823)"/>
<rect x="26.6035" y="21.3333" width="14.3333" height="19.2453" rx="5" transform="rotate(-90 26.6035 21.3333)" fill="url(#paint4_linear_312_823)"/>
<path d="M51.981 21.3333C49.2195 21.3333 46.981 19.0948 46.981 16.3333L46.981 12C46.981 9.23858 49.2195 7 51.981 7L59.9998 7L59.9998 16.3333C59.9998 19.0948 57.7613 21.3333 54.9998 21.3333L51.981 21.3333Z" fill="url(#paint5_linear_312_823)"/>
<defs>
<linearGradient id="paint0_linear_312_823" x1="0.310922" y1="33.77" x2="2.649" y2="27.5565" gradientUnits="userSpaceOnUse">
<stop stop-color="#D9D9D9"/>
<stop offset="1" stop-color="white"/>
</linearGradient>
<linearGradient id="paint1_linear_312_823" x1="19.0792" y1="37.4066" x2="25.63" y2="39.2916" gradientUnits="userSpaceOnUse">
<stop stop-color="#D9D9D9"/>
<stop offset="1" stop-color="white"/>
</linearGradient>
<linearGradient id="paint2_linear_312_823" x1="39.4566" y1="37.275" x2="45.4631" y2="39.83" gradientUnits="userSpaceOnUse">
<stop stop-color="#D9D9D9"/>
<stop offset="1" stop-color="white"/>
</linearGradient>
<linearGradient id="paint3_linear_312_823" x1="13.9847" y1="21.6443" x2="20.1982" y2="23.9823" gradientUnits="userSpaceOnUse">
<stop stop-color="#D9D9D9"/>
<stop offset="1" stop-color="white"/>
</linearGradient>
<linearGradient id="paint4_linear_312_823" x1="29.8336" y1="21.7399" x2="36.3844" y2="23.625" gradientUnits="userSpaceOnUse">
<stop stop-color="#D9D9D9"/>
<stop offset="1" stop-color="white"/>
</linearGradient>
<linearGradient id="paint5_linear_312_823" x1="47.256" y1="18.1033" x2="49.811" y2="12.0969" gradientUnits="userSpaceOnUse">
<stop stop-color="#D9D9D9"/>
<stop offset="1" stop-color="white"/>
</linearGradient>
</defs>
</svg>
